<svg id="svg" version="1.1" xmlns="http://www.w3.org/2000/svg" xmlns:xlink="http://www.w3.org/1999/xlink" width="400" height="447.40578918623703" viewBox="0, 0, 400,447.40578918623703"><g id="svgg"><path id="path0" d="M79.664 106.881 C 80.895 120.369,81.907 131.477,81.913 131.567 C 81.918 131.658,124.402 131.731,176.321 131.731 L 270.720 131.731 270.604 132.441 C 270.540 132.832,269.523 144.094,268.345 157.469 C 267.166 170.844,266.146 181.876,266.079 181.985 C 266.006 182.103,229.511 182.245,176.121 182.335 L 86.286 182.486 86.407 183.488 C 86.571 184.838,90.661 230.701,90.661 231.185 C 90.661 231.549,94.879 231.567,176.175 231.567 C 223.208 231.567,261.729 231.641,261.778 231.731 C 261.907 231.968,256.171 295.516,256.007 295.678 C 255.931 295.753,243.512 299.150,228.409 303.226 L 200.950 310.637 173.531 303.234 C 158.451 299.162,146.070 295.788,146.018 295.736 C 145.951 295.669,142.436 257.215,142.436 256.550 C 142.436 256.507,131.327 256.472,117.750 256.472 L 93.064 256.472 93.064 257.111 C 93.064 258.358,99.841 333.666,99.965 333.790 C 100.034 333.859,122.803 340.220,150.563 347.927 L 201.037 361.938 251.638 347.915 C 300.784 334.296,302.241 333.877,302.297 333.358 C 302.329 333.064,305.355 299.203,309.023 258.110 C 312.690 217.018,317.702 160.885,320.160 133.370 C 322.618 105.855,324.630 83.121,324.630 82.851 L 324.631 82.359 201.028 82.359 L 77.425 82.359 79.664 106.881 " stroke="none" fill="#f4f4f4" fill-rule="evenodd"></path><path id="path1" d="M4.151 0.641 C 4.151 0.994,4.738 7.850,5.456 15.879 C 6.174 23.907,8.093 45.418,9.720 63.681 C 11.347 81.944,13.363 104.555,14.200 113.927 C 15.037 123.299,16.856 143.697,18.242 159.257 C 19.628 174.817,21.447 195.216,22.283 204.588 C 23.120 213.960,24.939 234.358,26.325 249.918 C 27.712 265.478,29.627 286.958,30.581 297.652 C 31.534 308.345,33.357 328.793,34.631 343.091 C 39.341 395.948,39.932 402.430,40.054 402.552 C 40.228 402.726,199.604 446.979,200.546 447.115 C 201.104 447.196,204.319 446.390,212.452 444.133 C 218.580 442.432,228.534 439.671,234.571 437.997 C 276.934 426.253,286.512 423.597,302.785 419.085 C 330.357 411.440,338.105 409.292,348.826 406.324 C 354.924 404.636,360.468 403.102,361.146 402.916 L 362.380 402.576 362.511 401.452 C 362.583 400.834,363.967 385.434,365.588 367.231 C 368.108 338.928,382.927 172.857,394.761 40.301 C 396.681 18.790,398.252 0.923,398.252 0.595 L 398.252 0.000 201.202 0.000 L 4.151 0.000 4.151 0.641 M362.358 34.134 C 362.288 34.765,355.380 112.108,347.006 206.008 C 338.633 299.907,331.718 376.807,331.639 376.896 C 331.534 377.014,204.998 412.202,201.711 413.027 L 201.202 413.155 201.202 387.599 L 201.202 362.043 200.601 361.921 C 199.136 361.626,99.957 334.013,99.826 333.864 C 99.715 333.738,92.810 257.197,92.839 256.417 C 92.851 256.110,142.438 256.219,142.538 256.526 C 142.587 256.677,143.393 265.482,144.330 276.093 C 145.266 286.705,146.084 295.464,146.146 295.558 C 146.254 295.722,200.471 310.431,200.965 310.431 C 201.134 310.431,201.202 299.210,201.202 271.109 L 201.202 231.786 145.941 231.786 L 90.681 231.786 90.564 231.076 C 90.396 230.056,86.289 183.756,86.290 182.906 L 86.292 182.196 143.747 182.196 L 201.202 182.196 201.202 156.963 L 201.202 131.731 141.453 131.731 C 83.895 131.731,81.704 131.717,81.704 131.335 C 81.704 131.117,80.721 120.138,79.519 106.936 C 78.318 93.735,77.335 82.755,77.335 82.537 C 77.335 82.155,79.600 82.141,139.268 82.141 L 201.202 82.141 201.202 57.564 L 201.202 32.987 281.843 32.987 L 362.485 32.987 362.358 34.134 " stroke="none" fill="#244ce4" fill-rule="evenodd"></path><path id="path2" d="M201.202 57.564 L 201.202 82.141 263.047 82.141 L 324.893 82.141 324.753 83.397 C 324.676 84.088,322.557 107.706,320.044 135.882 C 317.531 164.058,312.573 219.650,309.027 259.421 C 302.452 333.147,302.372 334.025,302.243 334.025 C 302.170 334.025,202.342 361.671,201.584 361.901 C 201.223 362.011,201.202 363.425,201.202 387.586 L 201.202 413.155 201.711 413.027 C 204.998 412.202,331.534 377.014,331.639 376.896 C 331.718 376.807,338.633 299.907,347.006 206.008 C 355.380 112.108,362.288 34.765,362.358 34.134 L 362.485 32.987 281.843 32.987 L 201.202 32.987 201.202 57.564 M201.202 156.963 L 201.202 182.196 233.643 182.196 C 257.244 182.196,266.084 182.130,266.084 181.953 C 266.084 181.820,267.067 170.673,268.269 157.182 C 269.470 143.691,270.453 132.445,270.453 132.192 L 270.453 131.731 235.827 131.731 L 201.202 131.731 201.202 156.963 M201.202 271.123 C 201.202 308.486,201.221 310.455,201.584 310.346 C 201.794 310.283,214.058 306.974,228.837 302.993 C 243.616 299.011,255.784 295.681,255.879 295.592 C 256.003 295.474,261.715 233.209,261.715 231.969 C 261.715 231.868,248.099 231.786,231.458 231.786 L 201.202 231.786 201.202 271.123 " stroke="none" fill="#2c64f3" fill-rule="evenodd"></path><path id="path3" d="M114.982 182.359 C 130.822 182.390,156.677 182.390,172.437 182.359 C 188.197 182.328,175.238 182.303,143.637 182.303 C 112.037 182.303,99.142 182.328,114.982 182.359 M176.066 231.731 C 244.132 231.775,261.620 231.842,261.773 232.059 C 261.916 232.261,261.943 232.247,261.877 232.004 C 261.798 231.714,252.089 231.677,176.170 231.676 L 90.552 231.676 176.066 231.731 M92.878 256.963 C 92.909 257.623,92.917 257.631,93.002 257.074 L 93.093 256.474 117.819 256.417 L 142.545 256.361 117.695 256.307 L 92.845 256.253 92.878 256.963 " stroke="none" fill="#7591eb" fill-rule="evenodd"></path><path id="path4" d="M108.428 82.305 C 125.470 82.336,153.291 82.336,170.252 82.305 C 187.214 82.274,173.271 82.249,139.268 82.249 C 105.265 82.249,91.387 82.274,108.428 82.305 M232.059 82.305 C 249.091 82.336,276.961 82.336,293.992 82.305 C 311.024 82.274,297.089 82.249,263.026 82.249 C 228.962 82.249,215.027 82.274,232.059 82.305 " stroke="none" fill="#5283f4" fill-rule="evenodd"></path></g></svg>