<?xml version="1.0" standalone="no"?>
<!DOCTYPE svg PUBLIC "-//W3C//DTD SVG 20010904//EN"
 "http://www.w3.org/TR/2001/REC-SVG-20010904/DTD/svg10.dtd">
<svg version="1.0" xmlns="http://www.w3.org/2000/svg"
 width="512.000000pt" height="512.000000pt" viewBox="0 0 512.000000 512.000000"
 preserveAspectRatio="xMidYMid meet">

<g transform="translate(0.000000,512.000000) scale(0.100000,-0.100000)"
fill="#000000" stroke="none">
<path d="M2351 5109 c-434 -38 -831 -175 -1186 -406 -562 -368 -960 -943
-1104 -1599 -74 -335 -74 -753 0 -1088 46 -209 107 -382 204 -581 316 -645
883 -1123 1575 -1329 237 -71 446 -99 720 -99 418 0 755 77 1125 258 700 342
1206 988 1374 1751 74 335 74 753 0 1088 -83 377 -261 752 -499 1051 -360 451
-887 779 -1456 904 -215 48 -541 69 -753 50z m-713 -929 c115 -27 213 -104
264 -208 31 -62 33 -74 33 -167 0 -89 -3 -107 -28 -160 -80 -171 -274 -262
-453 -210 -274 78 -372 413 -182 620 59 65 112 99 188 119 65 17 119 19 178 6z
m232 -2045 l0 -1065 -310 0 -310 0 0 1065 0 1065 310 0 310 0 0 -1065z m910
1021 l0 -44 49 18 c102 39 206 53 355 47 214 -8 347 -53 488 -166 123 -97 221
-241 280 -411 l33 -95 3 -717 3 -718 -311 0 -310 0 0 665 0 666 -24 47 c-46
89 -90 114 -209 114 -76 1 -81 -1 -218 -68 l-139 -68 0 -678 0 -678 -310 0
-310 0 0 1065 0 1065 310 0 310 0 0 -44z"/>
</g>
</svg>
